<svg id="Icons" height="512" viewBox="0 0 74 74" width="512" xmlns="http://www.w3.org/2000/svg"><path d="m65.444 42.894a1.014 1.014 0 0 1 -.171-.015 1 1 0 0 1 -.815-1.155 27.865 27.865 0 0 0 -48.17-23.366 1 1 0 1 1 -1.488-1.339 29.863 29.863 0 0 1 51.629 25.044 1 1 0 0 1 -.985.831z"/><path d="m38.449 66.83a1 1 0 0 1 -.049-2 28.044 28.044 0 0 0 19.53-9.43 1 1 0 0 1 1.5 1.322 30.051 30.051 0 0 1 -20.93 10.107z"/><path d="m21.959 62.64a1 1 0 0 1 -.52-.146 28.535 28.535 0 0 1 -2.581-1.772 1 1 0 0 1 1.223-1.583 26.511 26.511 0 0 0 2.4 1.647 1 1 0 0 1 -.521 1.854z"/><path d="m13.941 55.35a1 1 0 0 1 -.8-.4 29.916 29.916 0 0 1 -5.567-23.011 1 1 0 0 1 1.971.341 27.54 27.54 0 0 0 5.194 21.468 1 1 0 0 1 -.2 1.4.989.989 0 0 1 -.598.202z"/><path d="m31.261 66.28a1.041 1.041 0 0 1 -.2-.02 30.627 30.627 0 0 1 -2.987-.764 1 1 0 0 1 .59-1.912 28.223 28.223 0 0 0 2.792.715 1 1 0 0 1 -.2 1.981z"/><path d="m65.444 42.894a1 1 0 0 1 -.817-.423l-3.927-5.556a1 1 0 1 1 1.633-1.155l3.349 4.74 4.739-3.348a1 1 0 0 1 1.154 1.634l-5.554 3.924a1 1 0 0 1 -.577.184z"/><path d="m12.482 38.663a1 1 0 0 1 -.817-.423l-3.349-4.74-4.739 3.348a1 1 0 0 1 -1.154-1.634l5.556-3.924a1 1 0 0 1 1.394.239l3.927 5.556a1 1 0 0 1 -.816 1.578z"/><path d="m51.416 47.272h-28.833a1 1 0 0 1 -1-1v-18.546a1 1 0 0 1 1-1h28.833a1 1 0 0 1 1 1v18.546a1 1 0 0 1 -1 1zm-27.833-2h26.833v-16.546h-26.833z"/><path d="m37 39.213a7.016 7.016 0 0 1 -4.589-1.713l-10.48-9.014a1 1 0 0 1 1.3-1.517l10.481 9.014a5 5 0 0 0 6.568 0l10.48-9.014a1 1 0 0 1 1.3 1.517l-10.471 9.014a7.025 7.025 0 0 1 -4.589 1.713z"/><path d="m22.583 47.274a1 1 0 0 1 -.652-1.758l10.782-9.274a1 1 0 0 1 1.3 1.517l-10.778 9.274a1 1 0 0 1 -.652.241z"/><path d="m51.417 47.274a1 1 0 0 1 -.652-.241l-10.783-9.274a1 1 0 0 1 1.3-1.517l10.782 9.274a1 1 0 0 1 -.652 1.758z"/></svg>