<?xml version="1.0" encoding="iso-8859-1"?>
<!-- Generator: Adobe Illustrator 19.0.0, SVG Export Plug-In . SVG Version: 6.00 Build 0)  -->
<svg version="1.1" id="Capa_1" xmlns="http://www.w3.org/2000/svg" xmlns:xlink="http://www.w3.org/1999/xlink" x="0px" y="0px"
	 viewBox="0 0 512 512" style="enable-background:new 0 0 512 512;" xml:space="preserve">
<g>
	<g>
		<path d="M256,0C114.615,0,0,114.615,0,256s114.615,256,256,256s256-114.615,256-256C511.841,114.681,397.319,0.159,256,0z
			 M256,496C123.452,496,16,388.548,16,256S123.452,16,256,16s240,107.452,240,240C495.85,388.486,388.486,495.85,256,496z"/>
	</g>
</g>
<g>
	<g>
		<path d="M256,32C132.288,32,32,132.288,32,256s100.288,224,224,224s224-100.288,224-224C479.859,132.347,379.653,32.141,256,32z
			 M256,464c-114.875,0-208-93.125-208-208S141.125,48,256,48s208,93.125,208,208C463.872,370.822,370.822,463.872,256,464z"/>
	</g>
</g>
<g>
	<g>
		<path d="M256,104c-83.947,0-152,68.053-152,152s68.053,152,152,152s152-68.053,152-152C407.907,172.091,339.909,104.093,256,104z
			 M256,392c-75.111,0-136-60.889-136-136s60.889-136,136-136s136,60.889,136,136C391.916,331.076,331.076,391.916,256,392z"/>
	</g>
</g>
<g>
	<g>
		<path d="M163.648,282.32c-2.428-8.562-3.655-17.42-3.648-26.32c0-4.418-3.582-8-8-8s-8,3.582-8,8
			c-0.005,10.379,1.427,20.709,4.256,30.696c0.979,3.435,4.116,5.805,7.688,5.808c0.744,0.005,1.485-0.098,2.2-0.304
			C162.391,290.99,164.855,286.568,163.648,282.32z"/>
	</g>
</g>
<g>
	<g>
		<path d="M256,352c-33.012,0.081-63.73-16.873-81.256-44.848c-2.303-3.771-7.226-4.961-10.997-2.659
			c-3.771,2.302-4.961,7.226-2.659,10.997c0.039,0.064,0.079,0.127,0.12,0.19c20.444,32.638,56.28,52.417,94.792,52.32
			c4.418,0,8-3.582,8-8S260.418,352,256,352z"/>
	</g>
</g>
<g>
</g>
<g>
</g>
<g>
</g>
<g>
</g>
<g>
</g>
<g>
</g>
<g>
</g>
<g>
</g>
<g>
</g>
<g>
</g>
<g>
</g>
<g>
</g>
<g>
</g>
<g>
</g>
<g>
</g>
</svg>
