<svg height="512pt" viewBox="0 -140 512 512" width="512pt" xmlns="http://www.w3.org/2000/svg"><path d="m497 32h-94.007812v167.160156c24.421874-4.089844 41.652343-22.867187 46.363281-46.644531 12.386719-3.492187 27.984375-14.355469 31.324219-46.375 13.785156-4.304687 31.320312-17.882813 31.320312-59.140625 0-8.285156-6.714844-15-15-15zm0 0"/><path d="m262.671875 40.003906 12.320313 6.191406v-46.195312h-38v46.195312l12.230468-6.148437c4.078125-2.066406 9.046875-2.242187 13.449219-.042969zm0 0"/><path d="m0 47c0 41.257812 17.535156 54.835938 31.320312 59.140625 3.339844 32.019531 18.9375 42.882813 31.324219 46.375 4.710938 23.769531 21.933594 42.546875 46.347657 46.644531v-167.160156h-93.992188c-8.285156 0-15 6.714844-15 15zm0 0"/><path d="m357.992188 0h-53v70.449219c0 8.285156-6.714844 15-15 15-2.921876 0-5.644532-.835938-7.953126-2.277344l-26.046874-13.09375-27.320313 13.730469c-10.042969 5.035156-21.589844-1.417969-21.582031-12.285156l-.097656-71.523438h-53c-8.285157 0-15 6.714844-15 15v202c0 8.285156 6.714843 15 15 15h204c8.28125 0 15-6.714844 15-15v-202c0-8.285156-6.714844-15-15-15zm0 0"/></svg>